<?xml version="1.0" encoding="utf-8"?>
<!-- Generator: Adobe Illustrator 21.1.0, SVG Export Plug-In . SVG Version: 6.00 Build 0)  -->
<svg version="1.1" id="Layer_1" xmlns="http://www.w3.org/2000/svg" xmlns:xlink="http://www.w3.org/1999/xlink" x="0px" y="0px"
	 viewBox="0 0 280.1 65.2" style="enable-background:new 0 0 280.1 65.2;" xml:space="preserve">
<style type="text/css">
	.st0{fill:#211D1E;}
</style>
<g id="cJ3k5h_1_">
	<g>
		<path class="st0" d="M36.3,65.2c-0.6-0.1-1.3-0.2-2-0.3c0.2-4.3,0.4-8.6,0.6-13c1.3,0.1,2.5,0.2,3.7,0.2c0,1.6,0,3.1,0,4.8
			c2.2,0,4.4,0,6.8,0c0.1-1.4,0.1-2.9,0.2-4.4c1.3,0,2.5,0,3.8,0c-0.2,4.3-0.4,8.5-0.6,12.7c-1.2,0-2.5,0-3.7,0c0-1.8,0-3.6,0-5.6
			c-2.2,0-4.5,0-6.8,0c-0.1,1.9-0.1,3.7-0.2,5.6C37.5,65.2,36.9,65.2,36.3,65.2z"/>
		<path class="st0" d="M52.3,65.2c0-0.2-0.1-0.4-0.1-0.6c0.2-4,0.3-8,0.5-12c0-0.1,0-0.2,0.1-0.4c4.2,0,8.4,0,12.8,0
			c0,0.6-0.1,1.4-0.1,2.3c-3,0.1-5.9,0.2-9,0.3c0,0.8,0,1.7,0,2.5c2.7,0,5.4,0,8.2,0c0,0.6-0.1,1.3-0.1,2.1
			c-2.8,0.1-5.5,0.2-8.3,0.3c0,0.9,0,1.8,0,2.9c3-0.1,6-0.3,9.1-0.4c0,0.8,0,1.6,0,2.5c-1.7,0.1-3.4,0.2-5,0.3
			c-2.1,0.1-4.2,0.2-6.3,0.2c-0.3,0-0.5,0.1-0.8,0.1C52.9,65.2,52.6,65.2,52.3,65.2z"/>
		<path class="st0" d="M4.3,0c1.1,0.4,2.2,0.8,3.4,1.2C7.5,5.7,7.2,10.3,7,15c-1.3-0.3-2.5-0.6-3.6-1c0-0.2-0.1-0.4-0.1-0.6
			C3.5,9.2,3.7,5,3.9,0.8C3.9,0.5,4,0.3,4.1,0C4.1,0,4.2,0,4.3,0z"/>
		<path class="st0" d="M83,55c-1.5,2.9-2.9,5.6-4.3,8.4c-1,0.1-1.9,0.2-3,0.3c-1.3-2.6-2.6-5.1-3.8-7.7c0,0-0.1,0-0.1,0
			c-0.1,2.6-0.2,5.3-0.3,8c-1.2,0.1-2.4,0.2-3.6,0.3c0.1-4.1,0.3-8.1,0.4-12.2c1.8-0.1,3.5-0.2,5.4-0.3c1.2,2.5,2.4,5.1,3.8,7.9
			c1.4-2.9,2.7-5.7,4-8.4c1.8-0.2,3.5-0.3,5.4-0.5c-0.1,3.9-0.2,7.8-0.3,11.8c-1.2,0.1-2.4,0.3-3.5,0.4C83,60.3,83,57.8,83,55z"/>
		<path class="st0" d="M40.2,21c-0.7-0.1-1.4-0.1-2-0.2c-0.6-0.1-1.2-0.2-1.9-0.3c-2.2-3.1-4.4-6.3-6.7-9.7c-0.1,3-0.3,5.8-0.4,8.7
			c-1.2-0.2-2.3-0.4-3.6-0.6c0.2-4.4,0.4-8.8,0.6-13.4c1.3,0.2,2.5,0.5,3.8,0.7c2.2,3.2,4.4,6.4,6.6,9.6c0.1,0,0.1,0,0.2-0.1
			c0.1-2.7,0.2-5.5,0.4-8.3c1.2,0.2,2.3,0.3,3.5,0.5C40.5,12.3,40.3,16.6,40.2,21z"/>
		<path class="st0" d="M40.1,34.3c-1.2-0.1-2.3-0.2-3.4-0.3c-1.4-2.3-3.4-3.2-5.7-2.5c-0.7,0.2-1.4,0.6-1.8,1.2
			c-2.1,2.6-0.5,6.8,2.7,7.4c0.9,0.2,1.9,0.1,2.8,0c1.2-0.2,1.9-1,2.1-2.2c-1.2-0.1-2.3-0.2-3.6-0.4c0-0.8,0-1.5,0-2.3
			c0.3,0,0.5,0,0.7,0c2.2,0.2,4.3,0.4,6.6,0.6c-0.1,2.4-0.2,4.7-0.3,7.3c-0.9-0.1-1.7-0.1-2.5-0.2c-0.1-0.4-0.3-0.8-0.4-1.4
			c-1.4,1.1-2.9,1.5-4.5,1.4c-3.3-0.3-6.2-1.5-7.7-4.7c-2.2-4.5,0.6-9.2,5.6-9.5c2.6-0.2,4.9,0.3,7.1,1.8
			C39.4,31.5,40.2,32.9,40.1,34.3z"/>
		<path class="st0" d="M139.3,16c1-2.5,1.9-4.8,2.8-7.2c1.2-0.1,2.4-0.1,3.7-0.2c-1.6,3.6-3.1,7.1-4.7,10.6
			c-1.2,0.1-2.5,0.2-3.8,0.4c-0.9-2.2-1.8-4.4-2.8-6.8c-1,2.5-1.9,4.8-2.9,7.3c-1.3,0.1-2.5,0.2-3.9,0.3c-1.5-3.5-2.9-6.9-4.4-10.5
			c1.3-0.1,2.5-0.1,3.8-0.2c0.8,2.3,1.7,4.5,2.6,7c1-2.5,2-4.8,3-7.3c1.1-0.1,2.3-0.1,3.5-0.2C137.4,11.4,138.4,13.6,139.3,16z"/>
		<path class="st0" d="M0,56.5c1.3,0.2,2.4,0.5,3.6,0.7c0.7,2.5,3.4,4,6,3.2c0.4-0.1,0.9-0.6,1-0.9c0.1-0.4-0.2-1-0.5-1.2
			c-0.6-0.5-1.3-0.8-1.9-1c-1.3-0.6-2.8-1-4.1-1.7c-0.9-0.5-1.8-1.1-2.4-1.9c-1.6-1.9-0.8-4.3,1.5-5.1c0.7-0.2,1.4-0.4,2.1-0.4
			c2.5,0,4.9,0.6,7,2c1.2,0.9,2,2,2,3.8c-1.2-0.2-2.4-0.3-3.6-0.5C9.9,51,7.9,50.6,6,50.7c-0.4,0-1,0.5-1.2,0.9
			c-0.3,0.6,0.1,1.1,0.7,1.3c1.5,0.6,2.9,1.2,4.4,1.8c1,0.4,2,0.9,2.9,1.5c1.3,0.9,2,2.1,1.6,3.7c-0.3,1.5-1.4,2.4-2.8,2.7
			c-3.6,0.8-6.9,0.2-9.8-2.1C0.6,59.6-0.2,58.3,0,56.5z"/>
		<path class="st0" d="M23.4,9.1c-1.3-0.3-2.4-0.5-3.6-0.7c-0.4-2.3-2.2-2.7-4-2.9c-0.7-0.1-1.3,0-1.6,0.8C13.9,7,14.4,7.5,15,7.8
			c1.4,0.7,2.9,1.4,4.3,2c1.4,0.6,2.7,1.3,3.7,2.5c1.5,1.9,0.8,4.4-1.5,5.2c-1.4,0.5-2.8,0.4-4.3,0.2c-2.2-0.4-4.2-1.1-5.9-2.6
			c-1.2-1.1-1.9-2.4-1.9-4.2c1.3,0.3,2.5,0.6,3.6,0.9c0.8,2.6,3.2,4,5.8,3.5c0.4-0.1,0.9-0.4,1-0.8c0.1-0.4-0.1-1-0.4-1.3
			c-0.6-0.5-1.3-0.9-1.9-1.2c-1.3-0.7-2.7-1.2-4-1.9c-0.9-0.5-1.8-1.2-2.4-1.9C9.4,6,10.5,3.2,13.3,3c3.1-0.3,5.9,0.6,8.3,2.5
			C22.8,6.3,23.4,7.5,23.4,9.1z"/>
		<path class="st0" d="M55.2,37.8c1.5,0.5,2.1,1.5,2.1,3c0.1,0.9,0.2,1.9,0.3,2.8c-1.1,0-2.3,0-3.6,0c-0.1-0.9-0.2-1.7-0.3-2.6
			c-0.1-1.4-0.6-2.1-2-2.3c-1.5-0.2-3-0.2-4.5-0.3c-0.1,1.6-0.2,3.2-0.3,4.8c-1.2,0-2.4,0-3.8,0c0.2-4.4,0.3-8.6,0.5-12.9
			c2.2,0.1,4.2,0.2,6.2,0.4c1.3,0.1,2.7,0.1,4,0.3c0.8,0.1,1.7,0.5,2.4,1c2,1.4,1.8,4.2-0.4,5.3C55.7,37.6,55.5,37.7,55.2,37.8z
			 M47.4,32.9c0,1.3,0,2.5,0,3.8c1.7,0,3.5,0.1,5.2,0c0.9,0,1.3-0.7,1.4-1.5c0-0.9-0.4-1.6-1.2-1.7C51,33.2,49.2,33.1,47.4,32.9z"/>
		<path class="st0" d="M73.6,31c0,0.9,0,1.6,0,2.4c-3,0-5.9,0-9,0c-0.1,0.9-0.1,1.7-0.2,2.6c2.8,0,5.5,0,8.2,0c0,0.7,0,1.3,0,2.2
			c-2.7,0-5.4,0-8.2,0c-0.1,1.1-0.1,2-0.2,2.9c3.1,0,6.1,0,9.1,0c0,0.7,0,1.4,0,2.4c-4.3,0.1-8.6,0.2-13,0.3
			c0.1-4.3,0.3-8.5,0.4-12.7C65.2,31,69.4,31,73.6,31z"/>
		<path class="st0" d="M32.1,56c-1.3-0.1-2.4-0.2-3.6-0.2c-1.2-2.6-3.9-3.1-6-2.5c-1.7,0.5-2.8,2.3-2.7,4.5c0.1,2.2,1.5,3.8,3.7,4.2
			c2.4,0.5,3.7-0.1,4.9-2.5c0.6,0,1.2,0,1.8,0c0.6,0,1.2,0.1,1.8,0.2c-0.1,1.1-0.5,1.9-1.1,2.7c-1.2,1.4-2.7,2.2-4.5,2.4
			c-3.1,0.3-5.9-0.3-8.2-2.5c-2.1-2.1-2.7-5.3-1.5-8c1.1-2.5,3.8-4,7.1-3.8c2.1,0.1,4.1,0.5,5.9,1.8C31,53,32,54.2,32.1,56z"/>
		<path class="st0" d="M111.6,29.2c1.1-0.1,2-0.2,2.9-0.3c2.1-0.2,4.2-0.4,6.2-0.5c1,0,2,0.1,2.9,0.3c0.8,0.1,1.3,0.6,1.5,1.4
			c0.1,0.9-0.2,1.6-0.9,2.1c-0.3,0.2-0.7,0.4-1.1,0.7c0.3,0.1,0.5,0.2,0.8,0.2c1.9,0.6,2.4,2.6,1,4c-0.9,1-2.2,1.6-3.5,1.8
			c-2.2,0.4-4.5,0.6-6.7,0.9c-1.1,0.1-2.1,0.2-3.2,0.4C111.6,36.6,111.6,33,111.6,29.2z M115.3,37.9c0.7-0.1,1.3-0.1,1.9-0.2
			c1.2-0.2,2.5-0.4,3.7-0.7c0.7-0.2,1.2-0.8,1-1.6c-0.2-0.8-0.8-1-1.5-0.9c-1.7,0.1-3.3,0.2-5.1,0.4
			C115.3,35.9,115.3,36.9,115.3,37.9z M115.4,33.1c1.2-0.1,2.4-0.2,3.6-0.4c0.6-0.1,1.2-0.2,1.7-0.4c0.3-0.2,0.6-0.7,0.7-1
			c0-0.2-0.6-0.7-0.9-0.7c-1.7,0-3.3,0.1-5,0.2C115.4,31.6,115.4,32.4,115.4,33.1z"/>
		<path class="st0" d="M17.1,40.6c-1.4-0.2-2.7-0.4-4-0.7c-0.4-1.1-0.8-2.1-1.2-3.2c-2.1-0.4-4.2-0.9-6.3-1.3
			c-0.5,0.9-1,1.8-1.5,2.7c-1.3-0.3-2.5-0.6-3.9-0.9C2.6,33.1,5,29,7.4,24.9c1.3,0.3,2.6,0.6,3.9,0.9C13.2,30.7,15.1,35.6,17.1,40.6
			z M11,34.1c-0.6-1.8-1.2-3.5-1.9-5.3c-0.8,1.5-1.6,2.9-2.4,4.4C8.2,33.5,9.5,33.8,11,34.1z"/>
		<path class="st0" d="M93.8,52.2c0,0.8,0,1.5,0,2.4c2.7-0.3,5.4-0.6,8.2-1c0,0.7,0,1.3,0,2c-2.8,0.4-5.5,0.7-8.3,1.1
			c0,0.9,0,1.7,0,2.7c3-0.4,6.1-0.8,9.1-1.2c0,0.8,0,1.5,0,2.3c-4.3,0.6-8.6,1.2-13.1,1.8c0.1-4,0.2-7.9,0.3-12
			c4.3-0.5,8.5-0.9,12.8-1.4c0,0.7,0,1.5,0,2.3C99.8,51.5,96.9,51.8,93.8,52.2z"/>
		<path class="st0" d="M85.7,10.9c1.3,0,2.4,0,3.7,0c0,1.4,0,2.7,0,4.1c2.3,0,4.5,0,6.8,0c0-1.4,0-2.8,0-4.2c1.4,0,2.5,0,3.6,0
			c0,3.8,0,7.5,0,11.4c-1.3,0-2.5,0-3.7,0c0-1.6,0-3.2,0-4.8c-2.3,0-4.4,0-6.8,0c0,1.8,0,3.4,0,5.2c-1.4,0-2.5,0-3.9,0
			C85.5,18.8,85.6,14.9,85.7,10.9z"/>
		<path class="st0" d="M244,29c-1,0-2.1,0-3.4,0c0-1.7,0-3.4,0-5.1c-0.1,0-0.2-0.1-0.3-0.1c-1.3,1.7-2.6,3.3-3.9,5c-1,0-1.9,0-3,0
			c-1.4-1.8-2.8-3.5-4.3-5.4c0,1.9,0,3.5,0,5.3c-1.1,0-2.3,0-3.6,0c0-2.6,0-5.2,0-7.9c1.7,0,3.4,0,5.2,0c1.4,1.8,2.7,3.6,4.2,5.5
			c1.2-1.8,2.4-3.4,3.6-5.1c1.7,0.1,3.5,0.2,5.4,0.4C244,24.1,244,26.5,244,29z"/>
		<path class="st0" d="M150.6,29.7c0,2,0,3.7,0,5.6c-0.8,0.1-1.6,0.2-2.5,0.4c-0.2-0.3-0.3-0.6-0.5-1c-2.9,2.1-6.1,2.5-9.4,1.7
			c-3.6-0.9-4.9-4.5-2.5-7.4c0.7-0.9,1.7-1.7,2.8-2.2c2.9-1.4,6-1.8,9.2-0.7c1.2,0.4,2.1,1,2.5,2.5c-1.2,0.1-2.4,0.3-3.5,0.4
			c-1.9-1.8-5.5-1.7-7.4,0.3c-1,1-1.3,2.3-0.8,3.6c0.5,1.3,1.7,1.7,2.9,1.7c1.2-0.1,2.5-0.3,3.7-0.6c0.9-0.2,1.5-0.9,1.8-2
			c-1.3,0.1-2.4,0.2-3.6,0.4c0-0.6,0-1.1,0-1.8C145.7,30.3,148.1,30,150.6,29.7z"/>
		<path class="st0" d="M106.9,12.6c0,0.8,0,1.5,0,2.3c2.7-0.1,5.4-0.3,8.1-0.4c0,0.7,0,1.3,0,2c-2.7,0.2-5.4,0.3-8.1,0.5
			c0,0.9,0,1.6,0,2.6c3-0.2,5.9-0.3,8.9-0.5c0,0.7,0,1.4,0,2.2c-4.2,0.3-8.5,0.5-12.7,0.8c0-3.9,0-7.7,0-11.6
			c4.3-0.2,8.5-0.3,12.7-0.5c0,0.8,0,1.4,0,2.2C112.9,12.3,110,12.4,106.9,12.6z"/>
		<path class="st0" d="M81,31.1c1.4-0.1,2.6-0.1,3.9-0.2c2,3.8,4.1,7.5,6.2,11.4c-1.4,0.1-2.7,0.2-4,0.3c-0.4-0.9-0.8-1.6-1.3-2.5
			c-2.1,0.1-4.2,0.3-6.3,0.4c-0.5,0.9-1,1.8-1.5,2.7c-1.2,0-2.4,0-3.8,0C76.5,39.2,78.7,35.2,81,31.1z M82.9,34.1
			c-0.8,1.5-1.5,2.8-2.3,4.3c1.5-0.1,2.8-0.2,4.2-0.3C84.1,36.7,83.5,35.5,82.9,34.1z"/>
		<path class="st0" d="M153.7,18.5c-1.4-0.3-3-0.5-4.3-1c-3.1-1.3-3.7-4.7-1.4-7.2c1.3-1.4,2.9-2.1,4.7-2.4c2.6-0.5,5.2-0.6,7.7,0.4
			c1.6,0.6,2.9,1.7,3.1,3.5c0.3,1.9-0.7,3.3-2.2,4.4c-1.8,1.3-4.5,2.1-7.6,2.1C153.8,18.3,153.7,18.4,153.7,18.5z M155.7,9.4
			c-1.5,0.1-2.8,0.3-4,1.2c-1,0.8-1.4,1.9-1.2,3.2c0.2,1.3,1.1,1.9,2.3,2.2c1.7,0.4,3.5,0.2,5.1-0.6c0.5-0.2,0.9-0.6,1.2-0.9
			c1.4-1.5,0.9-3.8-1-4.5C157.3,9.7,156.4,9.6,155.7,9.4z"/>
		<path class="st0" d="M177.7,11.9c1.6,0.3,2.2,1.2,2.3,2.6c0,0.5,0.2,0.9,0.4,1.5c-1.1,0.1-2.3,0.1-3.6,0.2
			c-0.1-0.4-0.3-0.8-0.3-1.2c-0.3-1.8-0.7-2.2-2.5-2.2c-1.4,0-2.7,0.1-4.2,0.2c0,1.2,0,2.4,0,3.7c-1.3,0.1-2.4,0.2-3.7,0.3
			c0-3.2,0-6.4,0-9.7c1.1-0.1,2.3-0.2,3.4-0.2c2.1-0.1,4.2-0.2,6.3-0.2c1,0,1.9,0.3,2.8,0.6c0.8,0.3,1.4,0.8,1.4,1.8
			c0,1-0.5,1.6-1.3,2C178.4,11.6,178.1,11.7,177.7,11.9z M169.7,11.7c1.9-0.2,3.6-0.3,5.4-0.5c0.1,0,0.3-0.1,0.4-0.2
			c0.3-0.4,0.7-0.8,0.7-1.2c0-0.3-0.6-0.9-0.9-0.9c-1.8-0.1-3.7,0-5.6,0C169.7,9.9,169.7,10.7,169.7,11.7z"/>
		<path class="st0" d="M197.2,15.3c0-3,0-6,0-9.1c0.9,0,1.7,0,2.6,0c2.7,0.1,5.5,0.2,8.2,0.5c0.9,0.1,1.9,0.6,2.7,1.2
			c2.1,1.5,2,4.3-0.2,5.7c-1.4,1-3.1,1.3-4.8,1.4C203,15.1,200.1,15.2,197.2,15.3z M200.9,7.8c0,2,0,3.7,0,5.6
			c1.8-0.1,3.5-0.2,5.2-0.4c0.4,0,0.9-0.3,1.3-0.5c1.3-0.8,1.4-2.7,0.2-3.6c-0.4-0.3-0.9-0.5-1.3-0.6C204.5,8.1,202.7,8,200.9,7.8z"
			/>
		<path class="st0" d="M192,21.7c1.2-0.1,2.4-0.2,3.6-0.2c2.2-0.1,4.4-0.2,6.6-0.2c0.9,0,1.8,0.3,2.7,0.6c0.7,0.2,1.2,0.8,1.2,1.6
			c0,0.8-0.5,1.4-1.1,1.7c-0.3,0.2-0.6,0.3-1.1,0.5c1.5,0.3,2.2,1.1,2.2,2.5c0,0.4,0.3,0.8,0.4,1.4c-1.2,0.1-2.3,0.1-3.6,0.2
			c-0.1-0.5-0.3-1-0.4-1.5c-0.2-1.1-0.6-1.6-1.8-1.6c-1.6,0-3.3,0.1-5,0.2c0,1.2,0,2.3,0,3.5c-1.3,0.1-2.5,0.2-3.8,0.3
			C192,27.6,192,24.7,192,21.7z M195.8,25.5c1.9-0.2,3.7-0.3,5.5-0.6c0.6-0.1,1.1-0.5,1.1-1.2c-0.1-0.7-0.6-0.9-1.2-0.9
			c-1.8,0-3.6,0.1-5.4,0.1C195.8,23.9,195.8,24.6,195.8,25.5z"/>
		<path class="st0" d="M163.9,30.2c0,1.2,0,2.3,0,3.5c-1.3,0.2-2.5,0.3-3.8,0.5c0-3.3,0-6.5,0-9.8c2.2-0.2,4.3-0.5,6.4-0.6
			c1.7-0.1,3.4-0.2,5,0.1c1.6,0.2,2.5,1.4,2.2,2.6c-0.2,1-0.9,1.6-1.7,2.1c-1.6,0.9-3.3,1.1-5.1,1.3C166,30,165,30.1,163.9,30.2z
			 M164,25.6c0,1,0,1.9,0,2.9c1.6-0.2,3.1-0.5,4.6-0.7c0.3,0,0.6-0.2,0.8-0.4c0.3-0.3,0.7-0.8,0.6-1.1c-0.1-0.4-0.6-0.9-1-0.9
			C167.4,25.5,165.7,25.6,164,25.6z"/>
		<path class="st0" d="M49.1,11.3c0-0.9,0-1.7,0-2.5c4.6,0.4,9.2,0.8,13.8,1.2c0,0.8,0,1.6,0,2.4c-1.7-0.1-3.3-0.2-5-0.3
			c-0.1,3.5-0.2,6.8-0.4,10.3c-1.3-0.1-2.5-0.1-3.8-0.2c0.1-3.5,0.2-6.9,0.4-10.4C52.3,11.6,50.7,11.5,49.1,11.3z"/>
		<path class="st0" d="M74.9,22.8c0-3.3,0-6.5,0-9.8c-1.6-0.1-3.2-0.1-4.8-0.2c0-0.8,0-1.5,0-2.4c4.6,0.1,9.1,0.2,13.8,0.3
			c0,0.8,0,1.5,0,2.3c-1.7,0-3.3,0-5,0c-0.1,3.3-0.2,6.5-0.3,9.8C77.3,22.8,76.1,22.8,74.9,22.8z"/>
		<path class="st0" d="M254.4,29.8c-0.1-2.4-0.2-4.9-0.3-7.4c2.1,0.3,4,0.4,5.9,0.8c1.9,0.3,3.7,0.7,5.5,1.3c1.1,0.3,2.1,1,3,1.8
			c1.7,1.6,1.2,3.7-1,4.3c-1.4,0.3-3,0.4-4.4,0.4c-2.6-0.1-5.2-0.5-7.9-0.8C254.9,29.9,254.7,29.8,254.4,29.8z M258.1,24.2
			c0,1.6,0,3,0,4.5c1.2,0.1,2.4,0.3,3.5,0.4c0.9,0.1,1.8,0.1,2.6,0c1.5-0.2,1.9-1.6,0.9-2.6c-0.5-0.5-1.2-1-1.9-1.2
			C261.6,24.8,259.9,24.6,258.1,24.2z"/>
		<path class="st0" d="M103.1,29.6c0,0.8,0,1.5,0,2.3c-1.7,0.1-3.3,0.3-5.2,0.4c0,3.1,0,6.2,0,9.4c-1.4,0.1-2.5,0.2-3.8,0.3
			c0-3.2,0-6.3,0-9.5c-1.6,0.1-3.2,0.2-5,0.2c0-0.8,0-1.5,0-2.3C93.9,30.2,98.5,29.9,103.1,29.6z"/>
		<path class="st0" d="M207.6,29.3c2.1-2.8,4.1-5.7,6.2-8.5c1.3,0,2.6,0,4,0c2.1,2.6,4.3,5.2,6.6,8.1c-1.5,0-2.7,0-4.1,0
			c-0.4-0.5-0.8-1-1.1-1.5c-2.2,0-4.3,0-6.4,0c-0.5,0.7-0.9,1.3-1.4,1.9c-1.2,0.1-2.4,0.2-3.6,0.2C207.7,29.4,207.6,29.3,207.6,29.3
			z M215.8,22.9c-0.7,1-1.3,1.9-2,2.8c1.4,0,2.7,0,4.1,0C217.1,24.7,216.5,23.8,215.8,22.9z"/>
		<path class="st0" d="M234.5,7.7c1.2,0.1,2.4,0.2,3.6,0.4c0.1,1.5,0.2,2.9,0.2,4.4c0,1,0.4,1.7,1.3,1.8c1.5,0.2,3,0.4,4.5,0.4
			c0.8,0,1.2-0.5,1.2-1.3c0-1.4,0-2.9,0-4.4c1.2,0.1,2.4,0.3,3.8,0.5c0,1.7,0.1,3.3,0,4.9c0,0.5-0.6,1.2-1.1,1.5
			c-0.6,0.4-1.4,0.5-2.2,0.6c-2.6,0.2-5.3,0-7.8-0.7c-0.6-0.2-1.3-0.4-1.9-0.7c-1-0.5-1.5-1.3-1.6-2.4C234.5,11,234.5,9.4,234.5,7.7
			z"/>
		<path class="st0" d="M255.2,12.4c0.5,0.3,0.9,0.6,1.3,0.7c1.7,0.5,3.4,0.9,5.1,1.5c1.1,0.4,2.2,0.9,3.1,1.5c0.4,0.2,0.8,1,0.7,1.3
			c-0.1,0.4-0.8,1-1.2,1c-1.6,0.1-3.2,0.2-4.7,0c-2-0.3-4.1-0.9-6-1.4c-0.6-0.2-1.1-0.6-1.6-1c-0.3-0.3-0.5-0.8-0.9-1.4
			c1.5,0.2,2.7,0.4,3.8,0.5c1.1,1.6,5.6,2.7,7.1,1.5c-0.5-0.3-0.9-0.6-1.3-0.8c-1.7-0.5-3.4-1-5.1-1.5c-1-0.3-2-0.7-2.9-1.3
			c-0.4-0.2-0.8-0.9-0.8-1.4c0-0.4,0.6-0.9,1.1-1c1.6-0.5,3.3-0.3,5,0c2,0.3,3.9,0.8,5.6,1.9c0.6,0.4,1.2,0.8,1.3,1.7
			c-1.2-0.2-2.4-0.4-3.5-0.6C259.9,12.1,256.9,11.4,255.2,12.4z"/>
		<path class="st0" d="M190.6,21.8c-2.2,2.1-4.2,4.1-6.3,6.1c0,1.1,0,2.3,0,3.5c-1.2,0.1-2.4,0.3-3.8,0.4c0-1.3,0-2.5,0-3.6
			c-2.1-1.7-4.1-3.4-6.4-5.2c1.6-0.2,2.9-0.3,4.3-0.4c1.3,1.1,2.6,2.1,4,3.3c1.1-1.1,2.1-2.2,3.2-3.2c0.4-0.4,1-0.6,1.5-0.7
			C188.3,21.8,189.3,21.8,190.6,21.8z"/>
		<path class="st0" d="M183,15.9c0-3.1,0-6.1,0-9.2c1.2,0,2.4,0,3.7,0c0,2.3,0,4.6,0,7.1c2.8-0.1,5.5-0.2,8.3-0.3c0,0.6,0,1.2,0,1.8
			C191.1,15.5,187.1,15.7,183,15.9z"/>
		<path class="st0" d="M112,55.6c-1,0.1-2.1,0.3-3.2,0.4c-0.2-1.2,0.3-2.1,1.1-2.8c0.6-0.5,1.3-0.9,1.9-1.4c0.5-0.4,1-0.8,0.8-1.6
			c-0.2-0.8-0.9-0.8-1.6-0.8c-1.5,0-2.3,0.7-2.9,2.4c-1.1,0.1-2.2,0.3-3.5,0.4c0.1-1.3,0.6-2.3,1.6-3c2.6-1.9,5.5-2.4,8.5-1.5
			c1.9,0.6,2.3,2.5,0.9,3.9c-0.6,0.6-1.3,1.1-2.1,1.5C112.5,54.1,112.3,54.3,112,55.6z"/>
		<path class="st0" d="M220,11.9c1.1,0,2.2,0,3.3,0c0.2,0.8,0.4,1.6,1.3,1.7c1,0.1,2,0.4,2.9-0.4c0-2,0-3.9,0-6
			c1.2,0.1,2.4,0.2,3.8,0.3c0,2,0,3.9,0,5.9c0,0.8-0.6,1.3-1.3,1.5c-1,0.3-2,0.5-3,0.5c-1.9,0.1-3.7,0-5.5-0.8
			C220.2,13.9,219.8,13.2,220,11.9z"/>
		<path class="st0" d="M280.1,15.6c0,0.5,0,0.9,0,1.4c-1.6-0.4-3.2-0.8-4.9-1.2c0,1.8,0,3.6,0,5.5c-1.2-0.2-2.4-0.5-3.6-0.8
			c-0.1-1.9-0.2-3.7-0.3-5.6c-1.7-0.4-3.3-0.8-5-1.1c0-0.4-0.1-0.8-0.1-1.5C270.9,13.3,275.5,14.5,280.1,15.6z"/>
		<path class="st0" d="M128.4,38.3c0-3.6,0-7.1,0-10.7c1.3-0.1,2.5-0.3,3.7-0.4c0,3.5,0,7,0,10.6C130.8,38,129.6,38.1,128.4,38.3z"
			/>
		<path class="st0" d="M247.3,21.8c1.1,0.1,2.3,0.2,3.6,0.3c0,2.5,0,4.9,0,7.4c-1.1-0.1-2.3-0.1-3.6-0.2
			C247.3,26.8,247.3,24.4,247.3,21.8z"/>
		<path class="st0" d="M47.1,8.8c0.6,3.6-0.6,5.3-3.5,5.3c0-0.4,0-0.7,0-1.2c0.7-0.3,1.5-0.4,1.5-1.5c-0.4-0.1-0.9-0.2-1.4-0.3
			c0-0.9,0-1.8,0-2.7c0.3,0,0.5,0,0.7,0C45.3,8.6,46.2,8.7,47.1,8.8z"/>
		<path class="st0" d="M108.5,59.6c0-0.9,0-1.7,0-2.5c1.2-0.2,2.4-0.4,3.7-0.6c0,0.8,0,1.6,0,2.5C111,59.2,109.8,59.4,108.5,59.6z"
			/>
	</g>
</g>
</svg>
